<svg width="48" height="47" viewBox="0 0 48 47" fill="none" xmlns="http://www.w3.org/2000/svg">
<path d="M29.4368 1.87839L32.4439 5.39959L19.4525 28.079L45.5052 20.6938L46.9826 22.4238L17.9503 30.6621L16.525 33.2103L13.4395 29.5973L29.4368 1.87839Z" fill="#FF001F"/>
<path d="M30.6779 3.77547L16.7362 28.5795V29.8515L44.6749 22.5375L41.1894 10.5065L30.6779 3.77547Z" fill="#FF001F" stroke="#FF001F" stroke-width="2"/>
<path d="M44.5303 23.5C44.5303 34.4608 35.2237 43.5274 23.5151 43.5274C11.8066 43.5274 2.5 34.4608 2.5 23.5C2.5 12.5392 11.8066 3.47266 23.5151 3.47266C35.2237 3.47266 44.5303 12.5392 44.5303 23.5Z" stroke="#FF001F" stroke-width="5"/>
<path d="M20.3331 36.3895L14.4896 29.4961" stroke="#FF001F" stroke-width="2"/>
</svg>
