<svg width="250" height="71" viewBox="0 0 250 71" fill="none" xmlns="http://www.w3.org/2000/svg">
<g clip-path="url(#clip0_0_3)">
<path d="M60.823 44.4225L49.5051 20.8501H58.3499L64.5538 35.0658L65.6856 38.3587H66.0628L67.1527 35.0658L73.4823 20.8501H82.1175L81.4468 23.2595L70.9253 44.4225H60.823Z" fill="#FF001F"/>
<path d="M85.4844 44.4225V20.8099H112.396V26.2713H93.6584V29.6044H107.533V35.1863H93.6584V38.9209H111.725L114.24 43.9808C114.24 44.0879 113.863 44.1949 113.109 44.302C112.354 44.3823 111.055 44.4225 109.21 44.4225H85.4844Z" fill="#FF001F"/>
<path d="M118.857 44.4225V24.0225L118.438 20.8099H126.151L137.972 32.295L139.606 34.0619H140.068V20.8099H148.116V44.4225H141.115L128.959 32.817L127.324 30.9296H126.905V44.4225H118.857Z" fill="#FF001F"/>
<path d="M159.566 44.4225C157.666 44.4225 156.269 44.3422 155.375 44.1816C154.48 44.0209 154.033 43.8335 154.033 43.6193L156.548 38.439C157.191 38.5461 158.518 38.6532 160.53 38.7603C162.543 38.8406 165.155 38.8808 168.369 38.8808H171.681C172.659 38.8808 173.316 38.7469 173.651 38.4792C173.986 38.2115 174.154 37.8233 174.154 37.3146V36.9131C174.154 36.2705 173.986 35.8288 173.651 35.5879C173.316 35.3469 172.659 35.2264 171.681 35.2264H162.081C159.259 35.2264 157.205 34.7312 155.919 33.7406C154.634 32.7233 153.991 31.0768 153.991 28.8013V27.3556C153.991 26.1776 154.215 25.0934 154.662 24.1028C155.137 23.1123 155.933 22.3225 157.051 21.7336C158.169 21.1178 159.706 20.8099 161.662 20.8099H175.579C177.284 20.8099 178.695 20.9036 179.813 21.091C180.959 21.2784 181.532 21.4792 181.532 21.6934L180.274 26.6729C179.492 26.5926 178.01 26.5123 175.831 26.432C173.679 26.3249 170.94 26.2713 167.615 26.2713L164.597 26.2312C163.73 26.2312 163.115 26.3517 162.752 26.5926C162.389 26.8068 162.193 27.2217 162.165 27.8375V28.1186C162.165 28.7343 162.361 29.1627 162.752 29.4036C163.143 29.6446 163.772 29.765 164.638 29.765H173.86C175.649 29.765 177.172 29.9391 178.43 30.2871C179.687 30.6351 180.651 31.2776 181.322 32.2146C181.993 33.1249 182.328 34.4768 182.328 36.2705V37.7162C182.328 39.7241 181.783 41.3438 180.693 42.5753C179.631 43.8068 177.773 44.4225 175.118 44.4225H159.566Z" fill="#FF001F"/>
<path d="M196.282 44.4225C193.292 44.4225 191.127 43.7934 189.785 42.5351C188.444 41.2768 187.773 39.2422 187.773 36.4312V29.0824C187.773 26.191 188.514 24.0895 189.995 22.7776C191.476 21.4391 193.572 20.7698 196.282 20.7698H208.523C210.451 20.7698 211.918 20.8769 212.924 21.091C213.958 21.2784 214.475 21.4792 214.475 21.6934L213.176 26.7131C212.477 26.6328 211.108 26.5524 209.068 26.4721C207.055 26.365 204.512 26.3115 201.438 26.3115H199.301C197.987 26.3115 197.093 26.5524 196.618 27.0343C196.171 27.4895 195.947 28.1989 195.947 29.1627V36.0296C195.947 36.9398 196.143 37.6493 196.534 38.1579C196.953 38.6398 197.875 38.8808 199.301 38.8808H201.019C205.015 38.8808 208.062 38.8406 210.157 38.7603C212.253 38.6532 213.511 38.5461 213.93 38.439L216.487 42.776C216.487 42.9099 216.194 43.1107 215.607 43.3784C215.048 43.6461 214.084 43.8871 212.714 44.1012C211.373 44.3154 209.501 44.4225 207.097 44.4225H196.282Z" fill="#FF001F"/>
<path d="M228.785 44.4225C225.823 44.4225 223.658 43.7934 222.288 42.5351C220.947 41.2501 220.276 39.2154 220.276 36.4312V28.7611C220.276 26.0304 220.947 24.0225 222.288 22.7375C223.63 21.4525 225.795 20.8099 228.785 20.8099H241.026C243.96 20.8099 246.098 21.4525 247.439 22.7375C248.808 24.0225 249.493 26.0304 249.493 28.7611V36.4312C249.493 39.2154 248.808 41.2501 247.439 42.5351C246.07 43.7934 243.932 44.4225 241.026 44.4225H228.785ZM231.678 38.9611H238.175C240.355 38.9611 241.445 38.0107 241.445 36.1099V29.0824C241.445 27.2083 240.355 26.2713 238.175 26.2713H231.678C230.56 26.2713 229.722 26.4855 229.163 26.9139C228.604 27.3422 228.324 28.065 228.324 29.0824V36.1099C228.324 37.1005 228.604 37.8233 229.163 38.2784C229.722 38.7335 230.56 38.9611 231.678 38.9611Z" fill="#FF001F"/>
<path d="M29.4368 13.8784L32.4439 17.3996L19.4525 40.079L45.5052 32.6938L46.9826 34.4238L17.9503 42.6621L16.525 45.2103L13.4395 41.5973L29.4368 13.8784Z" fill="#FF001F"/>
<path d="M30.6779 15.7755L16.7362 40.5795V41.8515L44.6749 34.5375L41.1894 22.5065L30.6779 15.7755Z" fill="#FF001F" stroke="#FF001F" stroke-width="2"/>
<path d="M44.5303 35.5C44.5303 46.4608 35.2237 55.5274 23.5151 55.5274C11.8066 55.5274 2.5 46.4608 2.5 35.5C2.5 24.5392 11.8066 15.4727 23.5151 15.4727C35.2237 15.4727 44.5303 24.5392 44.5303 35.5Z" stroke="#FF001F" stroke-width="5"/>
<path d="M20.3331 48.3895L14.4896 41.4961" stroke="#FF001F" stroke-width="2"/>
<path d="M134.269 55.8515V46.9855H139.235V47.8045H135.244V50.8985H138.364V51.6915H135.244V55.0455H139.274V55.8515H134.269ZM146.423 55.8515H145.331L143.095 52.1595L141.002 55.8515H139.91L142.471 51.4705L139.845 46.9855H140.898L143.108 50.7685L145.37 46.9855H146.384L143.719 51.3795L146.423 55.8515ZM147.51 55.8515V46.9855H152.476V47.8045H148.485V50.8985H151.605V51.6915H148.485V55.0455H152.515V55.8515H147.51ZM157.35 56.0595C156.605 56.0595 155.959 55.8775 155.413 55.5135C154.876 55.1408 154.46 54.6122 154.165 53.9275C153.879 53.2342 153.736 52.4065 153.736 51.4445C153.736 50.4738 153.875 49.6418 154.152 48.9485C154.438 48.2465 154.841 47.7135 155.361 47.3495C155.89 46.9768 156.514 46.7905 157.233 46.7905C157.97 46.7905 158.598 46.9552 159.118 47.2845C159.647 47.6052 160.059 48.0602 160.353 48.6495L159.573 49.1045C159.296 48.5932 158.971 48.2292 158.598 48.0125C158.226 47.7872 157.771 47.6745 157.233 47.6745C156.462 47.6745 155.855 48.0082 155.413 48.6755C154.98 49.3342 154.763 50.2528 154.763 51.4315C154.763 52.2028 154.863 52.8702 155.062 53.4335C155.262 53.9968 155.548 54.4302 155.92 54.7335C156.293 55.0282 156.726 55.1755 157.22 55.1755C157.836 55.1755 158.312 55.0412 158.65 54.7725C158.997 54.4952 159.318 54.0662 159.612 53.4855L160.431 53.9795C160.119 54.6555 159.703 55.1712 159.183 55.5265C158.672 55.8818 158.061 56.0595 157.35 56.0595ZM165.209 56.0595C164.117 56.0595 163.298 55.7648 162.752 55.1755C162.206 54.5775 161.933 53.7065 161.933 52.5625V46.9855H162.908V52.5625C162.908 54.3045 163.675 55.1755 165.209 55.1755C165.902 55.1755 166.448 54.9502 166.847 54.4995C167.254 54.0488 167.458 53.4032 167.458 52.5625V46.9855H168.433V52.5625C168.433 53.6892 168.147 54.5558 167.575 55.1625C167.011 55.7605 166.223 56.0595 165.209 56.0595ZM172.465 55.8515V47.7915H169.67V46.9855H176.222V47.7915H173.427V55.8515H172.465ZM177.134 55.8515V54.9935H177.992V47.8435H177.134V46.9855H179.825V47.8435H178.967V54.9935H179.825V55.8515H177.134ZM186.811 46.9855H187.76L184.666 55.8515H183.626L180.545 46.9855H181.52L184.146 54.7725L186.811 46.9855ZM188.783 55.8515V46.9855H193.749V47.8045H189.758V50.8985H192.878V51.6915H189.758V55.0455H193.788V55.8515H188.783ZM203.727 55.8515L202.817 53.3685H199.138L198.319 55.8515H197.344L200.49 46.9855H201.4L204.637 55.8515H203.727ZM199.437 52.5625H202.518L200.932 48.2595L199.437 52.5625ZM205.508 55.8515V54.9935H206.366V47.8435H205.508V46.9855H208.199V47.8435H207.341V54.9935H208.199V55.8515H205.508ZM214.925 55.8515L212.676 51.9385H210.921V55.8515H209.946V46.9855H212.91C213.447 46.9855 213.92 47.0895 214.327 47.2975C214.734 47.5055 215.046 47.8002 215.263 48.1815C215.48 48.5542 215.588 48.9832 215.588 49.4685C215.588 50.0578 215.41 50.5648 215.055 50.9895C214.7 51.4055 214.227 51.6872 213.638 51.8345L215.952 55.8515H214.925ZM210.921 51.1325H212.78C213.352 51.1325 213.79 50.9808 214.093 50.6775C214.405 50.3742 214.561 49.9712 214.561 49.4685C214.561 48.9658 214.405 48.5628 214.093 48.2595C213.79 47.9475 213.352 47.7915 212.78 47.7915H210.921V51.1325ZM217.487 55.8515V46.9855H218.462V55.0455H222.453V55.8515H217.487ZM223.358 55.8515V54.9935H224.216V47.8435H223.358V46.9855H226.049V47.8435H225.191V54.9935H226.049V55.8515H223.358ZM227.809 55.8515V46.9855H228.849L233.36 54.3825V46.9855H234.335V55.8515H233.295L228.784 48.4805V55.8515H227.809ZM236.403 55.8515V46.9855H241.369V47.8045H237.378V50.8985H240.498V51.6915H237.378V55.0455H241.408V55.8515H236.403ZM245.905 56.0595C245.255 56.0595 244.622 55.8992 244.007 55.5785C243.392 55.2492 242.88 54.8072 242.473 54.2525L243.266 53.5505C243.578 54.0445 243.977 54.4388 244.462 54.7335C244.947 55.0195 245.472 55.1625 246.035 55.1625C246.65 55.1625 247.118 55.0282 247.439 54.7595C247.76 54.4822 247.92 54.1095 247.92 53.6415C247.92 53.1302 247.747 52.7402 247.4 52.4715C247.062 52.1942 246.52 51.9515 245.775 51.7435C243.903 51.2842 242.967 50.4348 242.967 49.1955C242.967 48.4242 243.218 47.8305 243.721 47.4145C244.224 46.9985 244.921 46.7905 245.814 46.7905C246.464 46.7905 247.045 46.9118 247.556 47.1545C248.076 47.3972 248.54 47.7698 248.947 48.2725L248.18 48.9225C247.868 48.4978 247.526 48.1858 247.153 47.9865C246.78 47.7785 246.334 47.6745 245.814 47.6745C245.268 47.6745 244.822 47.8045 244.475 48.0645C244.128 48.3158 243.955 48.6625 243.955 49.1045C243.955 49.5552 244.115 49.9148 244.436 50.1835C244.757 50.4435 245.298 50.6645 246.061 50.8465C246.962 51.0892 247.66 51.4228 248.154 51.8475C248.657 52.2722 248.908 52.8702 248.908 53.6415C248.908 54.1182 248.787 54.5385 248.544 54.9025C248.301 55.2665 247.95 55.5525 247.491 55.7605C247.04 55.9598 246.512 56.0595 245.905 56.0595Z" fill="white"/>
</g>
<defs>
<clipPath id="clip0_0_3">
<rect width="250" height="71" fill="white"/>
</clipPath>
</defs>
</svg>
